<mxfile host="app.diagrams.net" modified="2024-03-19T05:27:44.223Z" agent="Mozilla/5.0 (X11; Ubuntu; Linux x86_64; rv:123.0) Gecko/20100101 Firefox/123.0" version="24.0.5" etag="j1IHhu38F-z04sfJztx3" type="github">
  <diagram name="第 1 页" id="TpDnTzlI7txdYdj42XjN">
    <mxGraphModel>
      <root>
        <mxCell id="0" />
        <mxCell id="1" parent="0" />
      </root>
    </mxGraphModel>
  </diagram>
</mxfile>
